<svg xmlns="http://www.w3.org/2000/svg" viewBox="0 0 384 512">
  <path fill="#fff" d="M318.7 268c-.5-54 44.5-79.6 46.6-80.9-25.4-37.1-64.9-42.1-78.9-42.7-33.7-3.4-65.8 19.8-82.9 19.8-17.1 0-43.4-19.2-71.3-18.7-36.6.5-70.1 21.3-88.9 54.1-38 65.9-9.7 162.9 27.2 216.1 18 25.9 39.4 54.9 67.6 53.9 27-1.1 37.2-17.4 69.9-17.4 32.7 0 41.7 17.4 70.3 17 29-.5 47.4-26.5 65.2-52.4 20.5-30 28.9-59 29.4-60.6-.7-.3-56.4-21.6-57-85.2zm-52.6-153.6c15.1-18.3 25.2-43.8 22.5-69.3-21.8.9-48.1 14.5-63.8 32.7-14 16.2-26.4 42-23.1 66.9 24.3 1.9 49.3-12.2 64.4-30.3z"/>
</svg>
