<svg xmlns="http://www.w3.org/2000/svg" viewBox="0 0 512 512">
  <path fill="#fff" d="M397.4 229.7c-8.7-46.6-49.6-82-98.3-82-12.3 0-24.3 2.3-35.2 6.8-3.5 1.4-5.8 4.9-5.8 8.7v200.2c0 3.2 2.6 5.8 5.8 5.8h133.6c46.2 0 83.8-37.6 83.8-83.8s-37.6-83.7-83.9-83.7zM226 162.3h-2.9c-2.6 0-4.7 2.1-4.7 4.7v198.5c0 2.6 2.1 4.7 4.7 4.7h2.9c2.6 0 4.7-2.1 4.7-4.7V167c0-2.6-2.1-4.7-4.7-4.7zm-47.7 24.5h-2.9c-2.6 0-4.7 2.1-4.7 4.7v174c0 2.6 2.1 4.7 4.7 4.7h2.9c2.6 0 4.7-2.1 4.7-4.7V191.5c0-2.6-2.1-4.7-4.7-4.7zm-47.7 21.8h-2.9c-2.6 0-4.7 2.1-4.7 4.7v152.2c0 2.6 2.1 4.7 4.7 4.7h2.9c2.6 0 4.7-2.1 4.7-4.7V209.3c0-2.6-2.1-4.7-4.7-4.7zM82.9 277.3h-2.9c-2.6 0-4.7 2.1-4.7 4.7v105.8c0 2.6 2.1 4.7 4.7 4.7h2.9c2.6 0 4.7-2.1 4.7-4.7V282c0-2.6-2.1-4.7-4.7-4.7z"/>
</svg>
