<svg xmlns="http://www.w3.org/2000/svg" viewBox="0 0 496 512">
  <path fill="#fff" d="M248 8C111 8 0 119 0 256s111 248 248 248 248-111 248-248S385 8 248 8zm100.7 365.5c-4.2 6.9-13.2 9-20.1 4.8-55-33.6-124.2-41.2-205.7-22.6-7.8 1.8-15.9-3.1-17.7-11-1.8-7.8 3.1-15.9 11-17.7 88.8-20.3 166.1-11.6 227.8 25.9 6.8 4.2 9 13.2 4.7 20.6zm28.4-65.8c-5.4 8.7-16.9 11.3-25.6 5.9-62.9-38.6-158.8-49.8-233.1-27.4-9.6 2.7-19.5-2.6-22.2-12.1-2.7-9.6 2.6-19.5 12.1-22.2 84.5-24.5 189.9-12.2 260.9 31.1 8.7 5.4 11.3 16.9 5.9 25.6zm2.4-67.1c-75.8-45.1-201.7-49.2-274.4-27.1-11.2 3.4-23-2.9-26.4-14.1-3.4-11.2 2.9-23 14.1-26.4 82.4-25.3 219.9-20.7 306.6 31.4 10.1 6 13.3 19.2 7.3 29.2-6.1 10.1-19.3 13.4-29.3 7z"/>
</svg>
